<svg id="Capa_1" enable-background="new 0 0 512 512" height="512" viewBox="0 0 512 512" width="512" xmlns="http://www.w3.org/2000/svg"><g><path d="m362.106 70.416c-.573 1.256-8.045 16.889-30.728 32.366-22.258 15.189-63.986 33.295-136.378 33.295h-99c-17.601 0-32.203 13.062-34.637 30h-46.363c-8.284 0-15 6.716-15 15v90c0 8.284 6.716 15 15 15h46.363c2.259 15.721 15 28.099 30.893 29.797l10.803 121.531c.688 7.739 7.172 13.672 14.941 13.672h59c8.732 0 15.633-7.445 14.955-16.163l-6.814-87.607 7.635-31.23c2.139.333 84.243-3.8 138.604 33.294 22.683 15.478 30.154 31.11 30.728 32.366 5.762 15.216 28.894 11.277 28.894-5.661v-300c-.002-16.929-23.131-20.88-28.896-5.66zm-332.106 125.661h31v60h-31zm61-25c0-2.757 2.243-5 5-5h84v120c-14.881 0-72.412 0-84 0-2.757 0-5-2.243-5-5zm69.788 250h-29.063l-9.333-105h39.499l-6.463 26.438c-1.01 4.142-.503-.162 5.36 78.562zm200.212-86.797c-25.444-21.595-71.288-45.293-151-47.953v-120.501c79.712-2.66 125.556-26.358 151-47.953z"/><path d="m497 211.077h-30c-8.284 0-15 6.716-15 15s6.716 15 15 15h30c8.284 0 15-6.716 15-15s-6.716-15-15-15z"/><path d="m443.5 149.067 25.98-15c7.175-4.142 9.633-13.316 5.49-20.49-4.143-7.175-13.316-9.632-20.49-5.49l-25.98 15c-7.175 4.142-9.633 13.316-5.49 20.49 4.155 7.197 13.336 9.62 20.49 5.49z"/><path d="m469.48 318.087-25.98-15c-7.175-4.145-16.349-1.685-20.49 5.49-4.143 7.174-1.685 16.348 5.49 20.49l25.98 15c7.143 4.125 16.33 1.715 20.49-5.49 4.143-7.175 1.685-16.348-5.49-20.49z"/><path d="m136 256.077c8.284 0 15-6.716 15-15v-30c0-8.284-6.716-15-15-15s-15 6.716-15 15v30c0 8.284 6.716 15 15 15z"/></g></svg>